<svg width="240" height="60" viewBox="0 0 240 60" fill="none" xmlns="http://www.w3.org/2000/svg">
  <!-- Stylized human figure with gradient (Keep brand colors) -->
  <defs>
    <linearGradient id="logo-gradient" x1="0" y1="0" x2="40" y2="40" gradientUnits="userSpaceOnUse">
      <stop offset="0%" stop-color="#F25022" />
      <stop offset="100%" stop-color="#D83B01" />
    </linearGradient>
  </defs>
  
  <path d="M20 5C14.5 5 10 9.5 10 15C10 17 10.5 18.8 11.5 20.3L2 32C0.5 34 1.5 37 4 37H12L10 55C10 57.5 13 58.5 15 57L38 40C40 38.5 40 35.5 38 34L28.5 27C29.5 25.5 30 23.8 30 22C30 16.5 25.5 12 20 12C14.5 12 10 16.5 10 22C10 27.5 14.5 32 20 32C22.5 32 24.8 31 26.5 29.5" fill="url(#logo-gradient)" />
  
  <!-- White Plus Sign -->
  <rect x="17" y="19" width="6" height="2" rx="1" fill="white" />
  <rect x="19" y="17" width="2" height="6" rx="1" fill="white" />

  <!-- IMMIDIT Text (White for dark backgrounds) -->
  <text x="50" y="42" font-family="Inter, sans-serif" font-weight="900" font-size="32" fill="white" letter-spacing="-1">IMMIDIT</text>
</svg>
